<?xml version="1.0" encoding="UTF-8"?>
<svg xmlns="http://www.w3.org/2000/svg" width="214" height="50" viewBox="0 0 214 50" fill="none">
  <g clip-path="url(#clip0_877_1309)">
    <path fill-rule="evenodd" clip-rule="evenodd" d="M15.1767 31.2808L13.3485 31.2426C11.4585 32.6486 9.63702 34.7257 8.81266 37.3227C7.13421 44.0802 13.266 44.9705 18.2135 45.6424C12.3709 44.0166 16.5843 38.0564 18.2349 34.6894L15.1767 31.2808Z" fill="#353535" stroke="#333333" stroke-width="0.755904" stroke-miterlimit="22.9256"></path>
    <path fill-rule="evenodd" clip-rule="evenodd" d="M13.3483 31.2426L11.3593 31.2468C10.5933 32.4335 8.20167 34.4815 7.47687 37.7125C6.39467 42.5373 7.61785 45.1226 13.2435 46.7212C22.4403 47.9702 29.7606 46.4897 34.8679 42.6027C37.8198 40.5319 39.3981 38.2235 39.9687 35.7138C40.3806 34.0668 40.3501 32.4677 40.1241 30.9623L39.1923 32.4617C39.5247 33.7227 39.0962 35.3685 38.614 36.6294C37.6102 38.7222 36.0295 40.5846 33.7725 42.1759C31.8534 43.5205 29.2053 44.5918 25.7819 45.3721C23.0216 45.8803 19.9576 45.9031 16.5707 45.4085C8.78963 44.9308 5.62505 39.0528 11.2911 33.2791L13.3483 31.2426Z" fill="#FFFFD5"></path>
    <path fill-rule="evenodd" clip-rule="evenodd" d="M27.5977 8.64062C35.7579 8.64062 42.373 15.2557 42.373 23.4159C42.373 31.5761 35.7579 38.1911 27.5977 38.1911C19.4375 38.1911 12.8225 31.5761 12.8225 23.4159C12.8225 15.2557 19.4375 8.64062 27.5977 8.64062Z" fill="#727271"></path>
    <path fill-rule="evenodd" clip-rule="evenodd" d="M25.4209 9.35528C31.7121 9.35528 40.963 13.0117 40.963 19.3029C40.963 25.5941 35.9101 32.7857 29.619 32.7857C23.3278 32.7857 19.195 27.6846 17.6637 21.5826C16.7237 17.8364 18.0151 12.6127 21.356 10.8266C22.2056 10.3724 24.1452 9.35528 25.4209 9.35528Z" fill="#D9DADA"></path>
    <path fill-rule="evenodd" clip-rule="evenodd" d="M32.5443 9.27227C37.7593 11.1043 41.3182 17.2443 40.4978 20.128C39.6775 23.0117 30.8539 25.7485 25.4657 23.4966C20.0775 21.2448 18.1849 15.591 19.4016 12.6796C20.6183 9.76822 27.3293 7.44026 32.5443 9.27227Z" fill="#EBECEC"></path>
    <path fill-rule="evenodd" clip-rule="evenodd" d="M30.5731 1.9318L28.8789 2.33745C30.8625 2.8455 32.7888 3.82943 33.9777 5.44932C35.014 6.86132 35.681 8.72541 35.9507 11.2114C36.8826 12.0814 37.9253 12.7981 38.4111 14.2507L41.8096 14.3186C42.9099 5.39402 40.0728 2.84728 30.5731 1.9318Z" fill="#353535"></path>
    <path fill-rule="evenodd" clip-rule="evenodd" d="M11.2822 14.4058C11.5685 15.241 11.9878 15.9152 12.4797 16.3677C7.84462 0.327758 48.7552 -3.47432 40.9978 14.7344L42.2199 15.2043C49.041 -5.51212 5.06156 -2.88433 11.2822 14.4058Z" fill="#B97E33"></path>
    <path fill-rule="evenodd" clip-rule="evenodd" d="M40.1057 31.2847C39.8291 31.7201 39.5367 32.1447 39.2137 32.548C37.1091 20.0094 21.6555 28.3794 14.9603 31.0753C11.4888 31.6581 7.88924 30.9645 5.25317 29.5921L27.3191 21.1727L40.3391 25.873L40.1057 31.2847Z" fill="#B97E33"></path>
    <path fill-rule="evenodd" clip-rule="evenodd" d="M10.5173 3.85355C17.3626 -0.872772 26.2884 -0.711489 34.7008 1.45616C15.3803 -1.59318 3.67526 15.7001 16.5465 18.2849C20.2278 19.0243 22.6474 17.2538 26.0681 16.0016C49.5158 7.41777 59.2337 26.5443 44.6337 41.1844C36.3446 49.4965 24.5525 53.1526 13.2436 46.7212C47.9619 51.3665 48.3137 14.7609 19.6553 27.7978C-2.60022 37.9223 -5.69927 15.988 10.5173 3.85355Z" fill="url(#paint0_linear_877_1309)"></path>
    <path d="M78.1992 30.2581C78.1992 32.0473 77.7466 33.4256 76.8416 34.3929C75.9367 35.3603 74.6104 35.844 72.863 35.844H67.7765V34.4084H72.863C75.3803 34.4084 76.6388 33.0459 76.6388 30.3205C76.6388 29.4261 76.514 28.7135 76.2644 28.1829C76.0148 27.6525 75.687 27.2208 75.2814 26.8879C74.8757 26.555 74.418 26.3002 73.9083 26.1234C73.3987 25.9465 72.8838 25.775 72.3637 25.6084C71.802 25.4213 71.2454 25.2132 70.6942 24.9844C70.1428 24.7556 69.6488 24.4487 69.2119 24.0638C68.775 23.679 68.4057 23.1952 68.1041 22.6128C67.8025 22.0303 67.6204 21.2814 67.558 20.3659L69.0871 19.7418C69.1079 20.5739 69.2327 21.2449 69.4615 21.7547C69.6903 22.2643 69.9972 22.6751 70.3821 22.9872C70.767 23.2993 71.2091 23.5437 71.7084 23.7206C72.2076 23.8975 72.7381 24.0795 73.2998 24.2667C73.9448 24.4747 74.5584 24.7191 75.141 24.9999C75.7235 25.2809 76.2436 25.6449 76.7012 26.0922C77.1589 26.5395 77.5231 27.0959 77.7935 27.7617C78.064 28.4274 78.1992 29.2595 78.1992 30.2581ZM72.8005 14H77.5126V15.4355H72.8318C71.6043 15.4355 70.6734 15.7736 70.0389 16.4496C69.4044 17.1257 69.0871 18.1712 69.0871 19.5857H67.5269C67.5269 17.7966 67.974 16.4184 68.8686 15.451C69.7632 14.4836 71.0739 14 72.8005 14ZM120.764 26.139H123.728C124.331 26.139 124.867 26.0349 125.335 25.8269C125.803 25.6189 126.194 25.338 126.505 24.9844C126.818 24.6307 127.057 24.2199 127.223 23.7517C127.39 23.2836 127.473 22.7895 127.473 22.2694V19.305C127.473 18.7849 127.39 18.2908 127.223 17.8226C127.057 17.3547 126.818 16.9437 126.505 16.5901C126.194 16.2364 125.803 15.9556 125.335 15.7475C124.867 15.5395 124.331 15.4355 123.728 15.4355H120.608V35.844H119.047V14H123.728C124.581 14 125.341 14.1404 126.006 14.4213C126.672 14.7021 127.229 15.087 127.676 15.5759C128.123 16.0647 128.461 16.6317 128.69 17.2766C128.919 17.9215 129.033 18.5977 129.033 19.305V22.2694C129.033 22.9977 128.919 23.679 128.69 24.3135C128.461 24.948 128.123 25.5097 127.676 25.9986C127.229 26.4874 126.672 26.8723 126.006 27.1532C125.341 27.434 124.581 27.5745 123.728 27.5745H121.388L120.764 26.139ZM92.6787 31.1632C92.6787 31.8288 92.5589 32.453 92.3198 33.0355C92.0805 33.6179 91.7321 34.1277 91.2743 34.5645C90.8167 35.0015 90.2498 35.3499 89.5736 35.61C88.8975 35.8699 88.1121 36 87.2177 36C86.3231 36 85.5377 35.8699 84.8616 35.61C84.1854 35.3499 83.6186 35.0015 83.1609 34.5645C82.7031 34.1277 82.3547 33.6179 82.1154 33.0355C81.8763 32.453 81.7567 31.8288 81.7567 31.1632V14H83.317V31.1632C83.317 31.6208 83.4001 32.0576 83.5666 32.4738C83.733 32.8898 83.9826 33.2539 84.3155 33.5659C84.6484 33.878 85.0592 34.1225 85.5482 34.2994C86.037 34.4761 86.5935 34.5645 87.2177 34.5645C87.8417 34.5645 88.3982 34.4761 88.8872 34.2994C89.376 34.1225 89.7868 33.878 90.1197 33.5659C90.4526 33.2539 90.7023 32.8898 90.8686 32.4738C91.0351 32.0576 91.1183 31.6208 91.1183 31.1632V14H92.6787V31.1632ZM100.355 21.2084L98.2955 15.4042H98.2331C98.2747 16.8397 98.3372 18.2751 98.4204 19.7106C98.5036 21.1462 98.5452 22.5815 98.5452 24.017V35.844H96.9849V14H99.1693L104.849 28.6355L106.908 34.4397H106.971C106.929 33.0042 106.867 31.5689 106.783 30.1333C106.7 28.6978 106.659 27.2625 106.659 25.8269V14H108.219V35.844H106.035L100.355 21.2084ZM134.588 26.139H137.396C138 26.139 138.535 26.0349 139.003 25.8269C139.471 25.6189 139.862 25.338 140.174 24.9844C140.486 24.6307 140.725 24.2199 140.891 23.7517C141.058 23.2836 141.141 22.7895 141.141 22.2694V19.305C141.141 18.7849 141.058 18.2908 140.891 17.8226C140.725 17.3547 140.486 16.9437 140.174 16.5901C139.862 16.2364 139.471 15.9556 139.003 15.7475C138.535 15.5395 138 15.4355 137.396 15.4355H132.715V14H137.396C138.249 14 139.009 14.1404 139.674 14.4213C140.34 14.7021 140.897 15.087 141.344 15.5759C141.791 16.0647 142.129 16.6317 142.358 17.2766C142.587 17.9215 142.701 18.5977 142.701 19.305V22.2694C142.701 23.3929 142.436 24.3967 141.906 25.2809C141.375 26.165 140.59 26.8047 139.55 27.2L142.764 35.844H141.11L137.896 27.5745H135.212L134.588 26.139ZM132.715 16.2467L134.276 15.6227V35.844H132.715V16.2467ZM148.35 24.2042H154.747V25.6397H148.974L148.35 24.2042ZM151.907 35.844C150.18 35.844 148.87 35.3603 147.975 34.3929C147.081 33.4256 146.633 32.0473 146.633 30.2581V14H156.307V15.4355H148.194V30.2581C148.194 33.025 149.442 34.4084 151.938 34.4084H156.307V35.844H151.907ZM171.348 14H173.844V35.844H172.284V24.017C172.284 22.5815 172.3 21.1462 172.331 19.7106C172.362 18.2751 172.399 16.8397 172.44 15.4042H172.378C172.149 16.3819 171.92 17.3494 171.691 18.3064C171.462 19.2633 171.213 20.2307 170.942 21.2084L167.759 32.7857H166.199L163.016 21.2084C162.746 20.2307 162.496 19.2633 162.267 18.3064C162.038 17.3494 161.81 16.3819 161.581 15.4042H161.518C161.56 16.8397 161.596 18.2751 161.627 19.7106C161.659 21.1462 161.674 22.5815 161.674 24.017V35.844H160.114V14H162.611L165.513 24.4852C165.804 25.5253 166.059 26.5655 166.277 27.6057C166.496 28.6459 166.719 29.6965 166.948 30.7575H167.011C167.239 29.6965 167.463 28.6459 167.681 27.6057C167.9 26.5655 168.155 25.5253 168.446 24.4852L171.348 14ZM179.992 14V35.844H178.432V14H179.992ZM195.189 31.1632C195.189 31.8288 195.07 32.453 194.83 33.0355C194.591 33.6179 194.243 34.1277 193.785 34.5645C193.327 35.0015 192.76 35.3499 192.084 35.61C191.408 35.8699 190.623 36 189.728 36C188.834 36 188.048 35.8699 187.372 35.61C186.696 35.3499 186.129 35.0015 185.672 34.5645C185.214 34.1277 184.865 33.6179 184.626 33.0355C184.387 32.453 184.267 31.8288 184.267 31.1632V14H185.828V31.1632C185.828 31.6208 185.911 32.0576 186.077 32.4738C186.244 32.8898 186.493 33.2539 186.826 33.5659C187.159 33.878 187.57 34.1225 188.059 34.2994C188.548 34.4761 189.104 34.5645 189.728 34.5645C190.352 34.5645 190.909 34.4761 191.398 34.2994C191.887 34.1225 192.297 33.878 192.63 33.5659C192.963 33.2539 193.213 32.8898 193.379 32.4738C193.546 32.0576 193.629 31.6208 193.629 31.1632V14H195.189V31.1632ZM210.73 14H213.226V35.844H211.666V24.017C211.666 22.5815 211.681 21.1462 211.712 19.7106C211.744 18.2751 211.78 16.8397 211.822 15.4042H211.759C211.53 16.3819 211.302 17.3494 211.073 18.3064C210.844 19.2633 210.594 20.2307 210.324 21.2084L207.141 32.7857H205.581L202.398 21.2084C202.127 20.2307 201.878 19.2633 201.649 18.3064C201.42 17.3494 201.191 16.3819 200.962 15.4042H200.9C200.941 16.8397 200.978 18.2751 201.009 19.7106C201.04 21.1462 201.056 22.5815 201.056 24.017V35.844H199.496V14H201.992L204.894 24.4852C205.185 25.5253 205.44 26.5655 205.659 27.6057C205.877 28.6459 206.101 29.6965 206.33 30.7575H206.392C206.621 29.6965 206.845 28.6459 207.063 27.6057C207.281 26.5655 207.536 25.5253 207.827 24.4852L210.73 14Z" fill="#353535"></path>
  </g>
  <defs>
    <linearGradient id="paint0_linear_877_1309" x1="25.9106" y1="0" x2="25.9106" y2="50" gradientUnits="userSpaceOnUse">
      <stop stop-color="#FFE7AA"></stop>
      <stop offset="1" stop-color="#FFD057"></stop>
    </linearGradient>
    <clipPath id="clip0_877_1309">
      <rect width="214" height="50" fill="white"></rect>
    </clipPath>
  </defs>
</svg>
